# xmcd CD database file
#
# Track frame offsets:
#	150
#	10050
#	20972
#	32025
#	41809
#	54346
#	65941
#	76028
#	86858
#	98338
#	107853
#	119724
#	130545
#	142430
#	159080
#	172730
#	184753
#	195700
#	207498
#	218771
#
# Disc length: 3075 seconds
#
# Revision: 1
# Processed by: cddbd v1.5.2PL0 Copyright (c) Steve Scherf et al.
# Submitted via: CDex 1.51
#
DISCID=1b0c0114
DTITLE=Jonny Cash - Walk the line - Volume2
DYEAR=1900
DGENRE=Country
TTITLE0=Hey Porter
TTITLE1=The ways of a woman in love
TTITLE2=I just thought you'd like to know
TTITLE3=Rock Island line
TTITLE4=Folsom prison blues
TTITLE5=Big river
TTITLE6=Get rythm
TTITLE7=Cold cold heart
TTITLE8=Thanks a lot
TTITLE9=If I were a carpenter
TTITLE10=Jackson
TTITLE11=Wide open road
TTITLE12=Doin' my time
TTITLE13=Ghost rider in the sky
TTITLE14=It ain't me baby
TTITLE15=Undertsand your man
TTITLE16=Cry! cry! cry!
TTITLE17=So doggone lonesome
TTITLE18=Mean eyed cat
TTITLE19=Home of the Blues
EXTD=
EXTT0=
EXTT1=
EXTT2=
EXTT3=
EXTT4=
EXTT5=
EXTT6=
EXTT7=
EXTT8=
EXTT9=
EXTT10=
EXTT11=
EXTT12=
EXTT13=
EXTT14=
EXTT15=
EXTT16=
EXTT17=
EXTT18=
EXTT19=
PLAYORDER=
